<?xml version="1.0" encoding="UTF-8"?>
<!DOCTYPE svg PUBLIC "-//W3C//DTD SVG 1.1//EN" "http://www.w3.org/Graphics/SVG/1.1/DTD/svg11.dtd">
<!-- Creator: CorelDRAW 2021 (64-Bit) -->
<svg xmlns="http://www.w3.org/2000/svg" xml:space="preserve" width="387px" height="168px" version="1.1" style="shape-rendering:geometricPrecision; text-rendering:geometricPrecision; image-rendering:optimizeQuality; fill-rule:evenodd; clip-rule:evenodd"
viewBox="0 0 338.9 147.18"
 xmlns:xlink="http://www.w3.org/1999/xlink"
 xmlns:xodm="http://www.corel.com/coreldraw/odm/2003">
 <defs>
  <style type="text/css">
   <![CDATA[
    .fil0 {fill:#EC7C13}
    .fil1 {fill:black;fill-rule:nonzero}
   ]]>
  </style>
 </defs>
 <g id="Layer_x0020_1">
  <metadata id="CorelCorpID_0Corel-Layer"/>
  <g id="_1605390362432">
   <path class="fil0" d="M130.77 56.23c2.57,-1.08 1.84,-6.28 1.89,-8.97 0.25,-12.61 0.73,-26.74 -0.04,-39.23 -0.1,-1.56 -0.25,-4.15 -0.77,-5.61 -1.31,-3.02 -6.76,-2.28 -9.68,-2.32 -17.69,-0.24 -35.01,0.04 -52.65,0.07 -20.3,0.02 -40.6,0.01 -60.89,-0.04 -8.96,-0.02 -8.49,0.41 -8.45,10.41 0.07,14.64 0.05,29.28 0.05,43.92l0 2.09 0 19.36c-0.01,8.75 -0.74,65.44 0.45,68.56 1.19,3.1 8.46,2.64 11.26,2.68 7.49,0.11 14.95,-0.19 22.43,-0.21 4.91,0.02 27.63,0.74 30.39,-0.9 2.02,-1.19 1.63,-7.9 1.69,-9.96 0.32,-11.09 -0.03,-21.96 -0.07,-33.01 0,-13.06 0.09,-26.13 -0.16,-39.18 -0.19,-9.54 2.33,-7.61 10.96,-7.3 10.66,0.39 22.11,0.27 32.83,0.25 2.87,-0.01 18.63,0.07 20.76,-0.61z"/>
   <path class="fil1" d="M78.46 90.07c0.2,-3.84 0.3,-6.88 0.3,-9.12 0,-0.64 -0.02,-1.52 -0.05,-2.62 3.92,0.07 7.18,0.1 9.83,0.1 3.65,0 6.85,-0.03 9.61,-0.1 -0.1,1 -0.17,1.84 -0.2,2.52l-0.29 6.02c-0.06,0.9 -0.1,1.97 -0.1,3.2 -3.2,-0.06 -6.26,-0.1 -9.21,-0.1 -3.04,0 -6.34,0.04 -9.89,0.1zm-3.08 55.81c0.45,-3.96 0.78,-7.21 0.99,-9.76 0.24,-2.57 0.45,-5.84 0.65,-9.84 0.22,-3.98 0.4,-8.39 0.55,-13.21 0.16,-4.84 0.3,-10.45 0.38,-16.83 4.21,0.07 7.58,0.1 10.1,0.1 2.3,0 5.6,-0.03 9.91,-0.1 -0.53,6.12 -0.91,11.51 -1.12,16.15 -0.24,4.63 -0.39,9.53 -0.45,14.72 -0.12,9.21 -0.18,15.47 -0.18,18.77 -3.87,-0.06 -7.18,-0.1 -9.99,-0.1 -2.75,0 -6.36,0.04 -10.84,0.1zm31.48 0c0.94,-7.36 1.66,-15.48 2.15,-24.39 0.5,-8.88 0.82,-17.31 0.9,-25.25 3.9,0.07 7.26,0.1 10.08,0.1 3.28,0 6.43,-0.03 9.45,-0.1l-0.43 6.62c1.06,-1.2 1.97,-2.14 2.75,-2.82 0.78,-0.7 1.74,-1.38 2.89,-2.03 1.16,-0.66 2.37,-1.19 3.66,-1.62 1.3,-0.42 2.71,-0.75 4.25,-0.98 1.54,-0.25 3.15,-0.36 4.82,-0.36 2.32,0 4.59,0.24 6.82,0.74 2.2,0.5 4.06,1.21 5.55,2.14 1.48,0.91 2.72,2.06 3.73,3.43 1,1.38 1.66,2.86 1.99,4.43 0.32,1.58 0.48,3.22 0.48,4.89 0,1.23 -0.13,3.9 -0.4,7.98l-0.81 17.59c-0.16,3.48 -0.25,6.68 -0.25,9.63 -3.28,-0.06 -6.33,-0.1 -9.18,-0.1 -3.87,0 -7.38,0.04 -10.55,0.1 0.3,-2.95 0.63,-7.32 0.96,-13.15 0.34,-5.82 0.52,-9.91 0.52,-12.28 0,-3.65 -0.72,-6.19 -2.12,-7.63 -1.41,-1.44 -3.2,-2.15 -5.34,-2.15 -1.89,0 -3.67,0.61 -5.34,1.84 -1.68,1.24 -2.95,3.01 -3.87,5.37 -0.91,2.35 -1.55,6.22 -1.92,11.59 -0.38,5.37 -0.63,10.84 -0.76,16.41 -3.23,-0.06 -6.4,-0.1 -9.49,-0.1 -3.23,0 -6.74,0.04 -10.54,0.1zm123.47 0c-3.47,-0.06 -6.35,-0.1 -8.66,-0.1 -2.6,0 -5.75,0.04 -9.45,0.1l0.28 -6.13c-1.26,1.23 -2.37,2.22 -3.3,2.98 -0.94,0.77 -2.15,1.5 -3.63,2.21 -1.47,0.71 -3.05,1.26 -4.76,1.66 -1.69,0.38 -3.44,0.58 -5.27,0.58 -3.1,0 -6.02,-0.57 -8.72,-1.71 -2.7,-1.13 -5.01,-2.74 -6.91,-4.83 -1.91,-2.08 -3.34,-4.57 -4.28,-7.42 -0.95,-2.87 -1.41,-5.86 -1.41,-8.92 0,-4.38 0.86,-8.66 2.59,-12.84 1.7,-4.18 3.96,-7.46 6.73,-9.85 2.78,-2.4 5.92,-4.09 9.4,-5.09 3.48,-0.98 7.26,-1.47 11.32,-1.47 2.69,0 5.84,0.23 9.44,0.69 0.25,-3.86 0.4,-9.27 0.48,-16.21 3.98,0.06 7.23,0.1 9.75,0.1 3.27,0 6.55,-0.04 9.88,-0.1 -0.91,9.61 -1.72,21.37 -2.42,35.25 -0.7,13.86 -1.06,24.24 -1.06,31.1zm-17.3 -37.5c-1.72,-0.4 -3.35,-0.6 -4.87,-0.6 -3.17,0 -5.85,0.61 -8.06,1.82 -2.2,1.21 -3.91,3.1 -5.11,5.69 -1.17,2.57 -1.77,5.11 -1.77,7.6 0,1.89 0.33,3.58 0.99,5.07 0.69,1.51 1.7,2.7 3.09,3.58 1.38,0.88 2.92,1.31 4.61,1.31 1.79,0 3.41,-0.5 4.91,-1.51 1.47,-0.99 2.67,-2.47 3.6,-4.41 0.92,-1.94 1.57,-4.26 1.9,-6.93 0.35,-2.67 0.58,-6.55 0.71,-11.62zm77 22.88c-0.42,1.94 -1.21,6.62 -2.39,14.03 -3.76,0.76 -6.93,1.26 -9.5,1.51 -2.57,0.24 -5.16,0.38 -7.79,0.38 -3.87,0 -7.43,-0.27 -10.67,-0.8 -3.24,-0.53 -6.05,-1.49 -8.4,-2.85 -2.36,-1.34 -4.33,-3.04 -5.92,-5.06 -1.59,-2.02 -2.8,-4.43 -3.63,-7.21 -0.83,-2.79 -1.25,-5.65 -1.25,-8.59 0,-4.15 0.83,-8.21 2.49,-12.17 1.64,-3.96 3.78,-7.06 6.39,-9.29 2.61,-2.23 5.62,-3.83 9.02,-4.75 3.39,-0.95 6.89,-1.41 10.46,-1.41 3.68,0 7.21,0.43 10.56,1.29 3.37,0.85 6.2,2.35 8.54,4.48 2.34,2.14 3.99,4.54 4.99,7.23 0.98,2.68 1.48,5.58 1.48,8.68 0,1.86 -0.2,3.9 -0.6,6.17l-34.17 0.05c-0.04,0.52 -0.05,0.98 -0.05,1.41 0,3.48 1.26,6.05 3.76,7.71 2.5,1.64 5.55,2.47 9.17,2.47 2.14,0 4.59,-0.25 7.34,-0.74 2.74,-0.5 6.14,-1.35 10.17,-2.54zm-30.01 -15.72l16.08 0c0.03,-0.55 0.05,-1.01 0.05,-1.41 0,-1.67 -0.3,-3.12 -0.9,-4.31 -0.61,-1.19 -1.47,-2.06 -2.58,-2.6 -1.13,-0.55 -2.39,-0.83 -3.78,-0.83 -0.98,0 -1.91,0.15 -2.82,0.46 -0.91,0.3 -1.74,0.76 -2.47,1.36 -0.73,0.6 -1.35,1.28 -1.83,2.06 -0.48,0.76 -0.84,1.52 -1.07,2.24 -0.22,0.73 -0.45,1.74 -0.68,3.03zm41.27 30.34l1.55 -21.58 0.49 -12.41c0.04,-2.24 0.05,-4.51 0.05,-6.85 0,-2.37 -0.03,-5.3 -0.1,-8.8 3.92,0.07 7.03,0.1 9.32,0.1 2.71,0 5.79,-0.03 9.29,-0.1l-0.22 5.55c1.28,-1.42 2.32,-2.48 3.14,-3.18 0.81,-0.7 1.72,-1.33 2.77,-1.89 1.04,-0.56 2.14,-0.99 3.26,-1.26 1.15,-0.28 2.32,-0.41 3.57,-0.41 1.16,0 2.47,0.16 3.89,0.49 0.04,3.54 0.12,6.44 0.25,8.74l0.35 7.48c-1.79,-0.53 -3.47,-0.8 -5.02,-0.8 -1.96,0 -3.63,0.29 -5.04,0.85 -1.41,0.56 -2.67,1.43 -3.77,2.59 -1.08,1.14 -1.95,2.57 -2.6,4.29 -0.65,1.71 -1.11,4.43 -1.36,8.16 -0.27,3.71 -0.4,7.97 -0.4,12.77 0,1.69 0.07,3.78 0.2,6.26 -3.15,-0.06 -6.32,-0.1 -9.48,-0.1 -3.15,0 -6.54,0.04 -10.14,0.1z"/>
  </g>
 </g>
</svg>
